<svg xmlns="http://www.w3.org/2000/svg" viewBox="0 0 800 500" role="img" aria-labelledby="title desc">
  <title id="title">Masala fries</title>
  <desc id="desc">Illustration of masala fries in cup</desc>
  <rect width="800" height="500" fill="#ffe5bc"/>
  <ellipse cx="400" cy="410" rx="170" ry="30" fill="#ae8057" opacity="0.23"/>
  <rect x="330" y="180" width="20" height="140" rx="8" fill="#f5c65f"/>
  <rect x="358" y="156" width="20" height="164" rx="8" fill="#f2b954"/>
  <rect x="386" y="170" width="20" height="150" rx="8" fill="#f6cf6b"/>
  <rect x="414" y="160" width="20" height="160" rx="8" fill="#f3c15f"/>
  <rect x="442" y="176" width="20" height="144" rx="8" fill="#f7d170"/>
  <path d="M300 210h200l-24 176a28 28 0 0 1-28 24H352a28 28 0 0 1-28-24L300 210z" fill="#ce3c2d"/>
  <path d="M300 210h200l-5 35H305z" fill="#e35542"/>
  <circle cx="372" cy="318" r="6" fill="#f6ce62"/>
  <circle cx="410" cy="300" r="5" fill="#f6ce62"/>
</svg>
